Coordinates
version=1
nRows=11
nColumns=40
inDegrees=yes

Units are S.I. units (second, meters, Newtons, ...)
Angles are in degrees.

endheader
time	pelvis_tilt	pelvis_list	pelvis_rotation	pelvis_tx	pelvis_ty	pelvis_tz	hip_flexion_r	hip_adduction_r	hip_rotation_r	knee_angle_r	knee_angle_r_beta	ankle_angle_r	subtalar_angle_r	mtp_angle_r	hip_flexion_l	hip_adduction_l	hip_rotation_l	knee_angle_l	knee_angle_l_beta	ankle_angle_l	subtalar_angle_l	mtp_angle_l	lumbar_extension	lumbar_bending	lumbar_rotation	arm_flex_r	arm_add_r	arm_rot_r	elbow_flex_r	pro_sup_r	wrist_flex_r	wrist_dev_r	arm_flex_l	arm_add_l	arm_rot_l	elbow_flex_l	pro_sup_l	wrist_flex_l	wrist_dev_l
     51.14300000	     -2.13153387	     -3.13952090	     -2.83638491	      1.06592448	      0.92802198	      0.42286720	     23.81811044	     -2.09020286	    -10.91405795	     18.40337076	     18.40337076	      2.37501853	     -1.40857524	      3.66607682	      2.48108070	     -4.42698190	    -10.74902231	     17.34839144	     17.34839144	     18.03540265	     -5.43301792	     -3.69302979	    -11.10231044	      2.46192879	      0.00361862	    -12.77918035	    -13.41276304	    -15.15199845	     25.11235862	     47.81208052	      0.00000000	      0.00000000	     15.47446110	    -15.79368931	    -11.69211311	     68.14381860	     47.29776768	      0.00000000	      0.00000000
     51.15600000	     -2.25144548	     -3.14009559	     -2.77076442	      1.06795856	      0.92714865	      0.42473505	     23.37606218	     -1.95637345	    -10.92837827	     18.76283612	     18.76283612	      2.79488806	     -1.66136366	      3.40470558	      2.03261694	     -4.54289917	    -10.72479410	     17.22961517	     17.22961517	     18.32873576	     -5.28817480	     -3.76925586	    -10.71450279	      2.57549023	     -0.00223179	    -12.57036748	    -13.17775388	    -15.12540544	     25.23600810	     47.80272868	      0.00000000	      0.00000000	     15.46405782	    -15.68873733	    -11.69954836	     68.18151676	     47.29947388	      0.00000000	      0.00000000
     51.16900000	     -2.06603892	     -3.00645598	     -2.78110077	      1.07042704	      0.92667105	      0.42690652	     22.80932745	     -1.88534964	    -10.35273429	     19.43966370	     19.43966370	      2.66558321	     -2.92910452	      1.41620675	      1.07374042	     -4.66302254	    -11.77013722	     16.93990613	     16.93990613	     19.01890753	     -3.38154524	     -3.52282707	    -10.69685191	      2.51207637	     -0.21959437	    -12.30977539	    -13.06580213	    -14.90126412	     26.20773771	     47.67608899	      0.00000000	      0.00000000	     15.04063232	    -15.58790498	    -12.58413597	     68.72670026	     47.38533085	      0.00000000	      0.00000000
     51.18200000	     -2.01253203	     -2.88543713	     -2.75912647	      1.07279261	      0.92618375	      0.42894967	     22.39975570	     -1.89646108	    -10.12645727	     20.12861623	     20.12861623	      3.19019951	     -3.29217351	      0.94810458	      0.32144437	     -4.62935465	    -11.86499342	     16.63802096	     16.63802096	     19.22128716	     -3.12675541	     -3.38041769	    -10.50115307	      2.51383040	     -0.19207160	    -11.86978372	    -12.92904687	    -14.78810942	     26.44981545	     47.65070167	      0.00000000	      0.00000000	     14.90460309	    -15.48052360	    -12.56244375	     68.62927347	     47.38321084	      0.00000000	      0.00000000
     51.19500000	     -1.94436920	     -2.70038002	     -2.77818765	      1.07527158	      0.92593125	      0.43122207	     21.97851162	     -1.91381931	     -9.72925787	     20.71151262	     20.71151262	      3.63788094	     -3.86480953	      0.35964355	     -0.49791355	     -4.55289138	    -12.15391751	     16.26006902	     16.26006902	     19.42558944	     -2.59933165	     -3.04202756	    -10.32526112	      2.41033087	     -0.18325189	    -11.33209644	    -12.81642745	    -14.53694843	     26.89778644	     47.59840687	      0.00000000	      0.00000000	     14.64602402	    -15.43698332	    -12.62726659	     68.49024981	     47.38735239	      0.00000000	      0.00000000
     51.20800000	     -1.90788949	     -2.68358889	     -2.77576437	      1.07762164	      0.92576595	      0.43362374	     21.56457768	     -1.77364083	     -9.51676207	     21.16073752	     21.16073752	      4.14011563	     -4.13619332	      0.00910120	     -1.07963217	     -4.69798324	    -12.25014013	     16.25051851	     16.25051851	     19.57228788	     -2.49621353	     -2.92744166	    -10.15431173	      2.49500466	     -0.04848872	    -10.70958630	    -12.73117429	    -14.41509451	     27.24236477	     47.57376784	      0.00000000	      0.00000000	     14.38715198	    -15.17822980	    -12.56053485	     68.36542229	     47.37947180	      0.00000000	      0.00000000
     51.22100000	     -1.92643122	     -2.62134891	     -2.77077209	      1.07991881	      0.92576760	      0.43618357	     21.18062564	     -1.65877677	     -9.27525363	     21.46952594	     21.46952594	      4.70878681	     -4.33958755	     -0.28415965	     -1.54258604	     -4.81708222	    -12.27824871	     16.31545368	     16.31545368	     19.62326445	     -2.41856475	     -2.84514451	     -9.92243595	      2.53277178	      0.15966624	    -10.06272949	    -12.64999797	    -14.32695449	     27.57553313	     47.55517217	      0.00000000	      0.00000000	     14.14369116	    -14.98073606	    -12.50202651	     68.23602605	     47.37175515	      0.00000000	      0.00000000
     51.23400000	     -1.73159509	     -2.50108807	     -2.79869991	      1.08215977	      0.92617852	      0.43898820	     20.77454116	     -1.55709819	     -8.73292758	     22.06122589	     22.06122589	      5.10022228	     -5.19067764	     -0.74135349	     -2.16424778	     -4.93793962	    -12.60419470	     16.54689708	     16.54689708	     19.80199551	     -1.94659191	     -2.36884008	     -9.94399902	      2.46277254	     -0.08248689	     -9.15652062	    -12.69029705	    -13.92236292	     28.56045088	     47.47343469	      0.00000000	      0.00000000	     13.66150101	    -15.14090166	    -12.63653375	     67.77599016	     47.37366746	      0.00000000	      0.00000000
     51.24700000	     -1.69917195	     -2.53202594	     -2.79726343	      1.08412660	      0.92661416	      0.44200737	     20.27562437	     -1.25953925	     -8.40244841	     22.07037762	     22.07037762	      5.09737824	     -5.85389949	     -2.00638744	     -2.21053226	     -5.38278343	    -12.93854767	     17.59164855	     17.59164855	     20.80790556	     -1.21514674	     -0.16989005	     -9.85046890	      2.55958670	     -0.21061526	     -9.09767167	    -13.58101287	     -7.91009734	     31.48244315	     46.70477835	      0.00000000	      0.00000000	     13.04325919	    -14.97076963	    -13.04842791	     67.67862631	     47.43460044	      0.00000000	      0.00000000
     51.26000000	     -1.62761439	     -2.55386117	     -2.76549048	      1.08590682	      0.92724439	      0.44512284	     19.80353652	     -1.03870196	     -8.30671276	     22.22662340	     22.22662340	      5.56326954	     -5.97152593	     -2.12988038	     -2.26397514	     -5.75324958	    -12.82725876	     18.52316397	     18.52316397	     20.63520778	     -1.50739666	     -0.32584442	     -9.80664396	      2.61947753	     -0.14336776	     -8.06050035	    -13.58068440	     -7.89726003	     32.12823456	     46.67917001	      0.00000000	      0.00000000	     12.63685660	    -14.81154473	    -13.00265897	     67.32057764	     47.42385780	      0.00000000	      0.00000000
     51.27300000	     -1.50446425	     -2.47398623	     -2.79798509	      1.08755053	      0.92814848	      0.44839423	     19.23802324	     -0.90689770	     -8.16714739	     22.27018387	     22.27018387	      5.98743916	     -5.96605041	     -2.24239134	     -2.29474127	     -6.02993206	    -12.73138001	     19.57532283	     19.57532283	     20.31375021	     -1.84639660	     -0.44826290	     -9.82237881	      2.52663934	      0.09295007	     -6.94887295	    -13.52725828	     -7.86435736	     32.73875757	     46.65787544	      0.00000000	      0.00000000	     12.21934365	    -14.45426484	    -12.86924981	     67.00119911	     47.40620302	      0.00000000	      0.00000000
